<svg id="Layer_1" enable-background="new 0 0 512 512" height="512" viewBox="0 0 512 512" width="512" xmlns="http://www.w3.org/2000/svg"><g><path d="m285.36 52.74c9.105-20.888-6.172-44.74-29.36-44.74-23.153 0-38.478 23.822-29.36 44.74z" fill="#acebe2"/><path d="m285.36 52.74h-25c6.984-16.024-.28-35.164-16.86-42.21 26.552-11.27 53.338 15.876 41.86 42.21z" fill="#98d7ce"/><path d="m358 192h-204c-5.523 0-10-4.477-10-10v-20c0-5.523 4.477-10 10-10h204c5.523 0 10 4.477 10 10v20c0 5.523-4.477 10-10 10z" fill="#f79caf"/><path d="m368 162v20c0 5.52-4.48 10-10 10h-38c5.52 0 10-4.48 10-10v-20c0-5.52-4.48-10-10-10h38c5.52 0 10 4.48 10 10z" fill="#e3889b"/><path d="m352 152h-192l3.835-24.93c6.999-45.49 46.14-79.07 92.165-79.07 45.796 0 85.132 33.355 92.165 79.07z" fill="#f79caf"/><path d="m352 152h-40l-3.84-24.93c-5.98-38.88-35.33-68.83-72.16-76.91 52.257-11.486 103.94 23.461 112.16 76.91z" fill="#e3889b"/><path d="m176 240h-8c-13.255 0-24-10.745-24-24 0-13.218 10.709-24 24-24h8z" fill="#e4d5c1"/><path d="m336 240h8c13.255 0 24-10.745 24-24 0-13.218-10.709-24-24-24h-8z" fill="#e4d5c1"/><path d="m88 504v-60.365c0-38.604 27.568-71.702 65.536-78.682l70.464-12.953h64l70.464 12.953c37.968 6.979 65.536 40.077 65.536 78.682v60.365z" fill="#acebe2"/><path d="m424 443.63v60.37h-32v-60.37c0-38.6-27.57-71.7-65.54-78.68l-70.46-12.95h32l70.46 12.95c37.97 6.98 65.54 40.08 65.54 78.68z" fill="#98d7ce"/><path d="m288 313.33c0 38.744-.1 38.745 0 38.67-18.827 14.121-44.902 14.324-64 0v-38.67z" fill="#f8e9d2"/><path d="m288 313.33v38.67c-13.225 9.919-29.689 12.756-44.5 9.18 6.91-1.66 13.55-4.72 19.5-9.18v-38.67z" fill="#e4d5c1"/><path d="m256 320c-44.06 0-80-35.695-80-80v-48h160v48c0 44.183-35.817 80-80 80z" fill="#f8e9d2"/><path d="m336 192v48c0 52.208-49.285 90.497-100 77.48 34.5-8.88 60-40.21 60-77.48v-48z" fill="#e4d5c1"/><path d="m359.91 357.085-63.91-11.749v-26.964c26.221-13.437 44.851-39.652 47.633-70.372 27.675 0 41.714-31.324 25.445-51.842 4.205-3.298 6.922-8.412 6.922-14.158v-20c0-9.631-7.61-17.498-17.13-17.956-1.208-7.853-3.703-27.1-6.707-34.412-9.189-27.93-29.934-50.377-56.948-61.724 4.991-24.86-14.102-47.908-39.215-47.908-25.163 0-44.198 23.089-39.215 47.909-26.952 11.321-47.737 33.728-56.948 61.724-2.992 7.282-5.378 25.772-6.707 34.412-9.52.457-17.13 8.324-17.13 17.955v20c0 5.746 2.717 10.86 6.922 14.158-16.297 20.554-2.167 51.842 25.445 51.842 2.782 30.72 21.412 56.936 47.633 70.372v26.964l-63.91 11.749c-41.772 7.679-72.09 44.078-72.09 86.55v60.365c0 4.418 3.582 8 8 8s8-3.582 8-8v-60.365c0-34.75 24.806-64.531 58.983-70.813l67.18-12.35c20.402 13.475 47.233 13.501 67.674 0l67.18 12.35c34.177 6.282 58.983 36.063 58.983 70.813v60.365c0 4.418 3.582 8 8 8s8-3.582 8-8v-60.365c0-42.472-30.318-78.871-72.09-86.55zm-15.91-125.085v-32c8.822 0 16 7.178 16 16s-7.178 16-16 16zm-171.321-108.717c4.274 2.134 9.625 4.717 19.321 4.717 17.583 0 19.252-8 32-8 12.997 0 14.198 8 32 8 17.58 0 19.242-8 31.99-8 13.119 0 14.051 8 32.01 8 9.696 0 15.047-2.583 19.321-4.717.847 3.965.832 4.323 3.354 20.717h-173.35c2.64-17.16 2.565-17.026 3.354-20.717zm83.321-107.283c14.231 0 25.534 12.425 23.825 26.869-15.405-3.733-31.493-3.915-47.651 0-1.705-14.42 9.573-26.869 23.826-26.869zm25.992 43.989c2.464 1.141 36.589 10.129 52.477 47.85-4.98 2.371-7.337 4.161-14.469 4.161-12.973 0-14.198-8-32.01-8-17.574 0-19.261 8-31.99 8-12.997 0-14.198-8-32-8-17.583 0-19.252 8-32 8-7.173 0-9.548-1.818-14.47-4.161 17.325-41.131 62.931-60.963 104.462-47.85zm-129.992 102.011c0-1.103.897-2 2-2h204c1.103 0 2 .897 2 2v20c0 1.103-.897 2-2 2-25.74 0-178.425 0-204 0-1.103 0-2-.897-2-2zm0 54c0-8.822 7.178-16 16-16v32c-8.822 0-16-7.178-16-16zm32 24v-40h144v40c0 39.701-32.299 72-72 72s-72-32.299-72-72zm48 107.79v-23.117c15.634 4.437 32.365 4.437 48 0v23.117c-14.604 9.092-33.396 9.092-48 0z"/><path d="m152 424c-4.418 0-8 3.582-8 8v72c0 4.418 3.582 8 8 8s8-3.582 8-8v-72c0-4.418-3.582-8-8-8z"/><path d="m360 424c-4.418 0-8 3.582-8 8v72c0 4.418 3.582 8 8 8s8-3.582 8-8v-72c0-4.418-3.582-8-8-8z"/></g></svg>